# xmcd
# 
# Track frame offsets:
#     150
#     39419
#     46705
#     79007
#     90364
#     124672
#     134356
#     164925
#     170565
#     201497
#     211652
#     248024
#     263690
# 
# Disc length: 4079
# 
# Revision: 3
# Processed by: cddbd v1.5.2PL0 Copyright (c) Steve Scherf et al.
# Submitted via: fre:ac v1.0.17
# 
DISCID=ab0fed0d
DTITLE=My Sleeping Karma - Soma
DYEAR=2012
DGENRE=Rock
TTITLE0=Pachyclada
TTITLE1=Interlude 1
TTITLE2=Ephedra
TTITLE3=Interlude 2
TTITLE4=Eleusine coracana
TTITLE5=Interlude 3
TTITLE6=Saumya
TTITLE7=Interlude 4
TTITLE8=Somalatha
TTITLE9=Interlude 5
TTITLE10=Psilocybe
TTITLE11=Interlude by sheyk rAleph
TTITLE12=Glow11 (Remix by Holzner and Kaleun)
EXTD=
EXTT0=
EXTT1=
EXTT2=
EXTT3=
EXTT4=
EXTT5=
EXTT6=
EXTT7=
EXTT8=
EXTT9=
EXTT10=
EXTT11=
EXTT12=
PLAYORDER=
